<svg xmlns="http://www.w3.org/2000/svg" width="120" height="120" viewBox="0 0 24 24" fill="none" stroke="white" stroke-width="1.7" stroke-linecap="round" stroke-linejoin="round">
<circle cx="12" cy="12" r="3"></circle>
<path d="M19.4 15a1.7 1.7 0 0 0 .34 1.87l.06.06a2 2 0 1 1-2.83 2.83l-.06-.06a1.7 1.7 0 0 0-1.87-.34 1.7 1.7 0 0 0-1 1.55V22a2 2 0 1 1-4 0v-.09a1.7 1.7 0 0 0-1-1.55 1.7 1.7 0 0 0-1.87.34l-.06.06a2 2 0 1 1-2.83-2.83l.06-.06a1.7 1.7 0 0 0 .34-1.87 1.7 1.7 0 0 0-1.55-1H2a2 2 0 1 1 0-4h.09a1.7 1.7 0 0 0 1.55-1 1.7 1.7 0 0 0-.34-1.87l-.06-.06a2 2 0 1 1 2.83-2.83l.06.06a1.7 1.7 0 0 0 1.87.34H8a1.7 1.7 0 0 0 1-1.55V2a2 2 0 1 1 4 0v.09a1.7 1.7 0 0 0 1 1.55 1.7 1.7 0 0 0 1.87-.34l.06-.06a2 2 0 1 1 2.83 2.83l-.06.06a1.7 1.7 0 0 0-.34 1.87v.09a1.7 1.7 0 0 0 1.55 1H22a2 2 0 1 1 0 4h-.09a1.7 1.7 0 0 0-1.55 1z"></path>
</svg>